<svg data-name="Layer 1" xmlns="http://www.w3.org/2000/svg" viewBox="0 0 309 109" width="309" height="109">
    <g opacity=".54">
        <path d="M114.995 2.6h30.6c31.16 0 50.72 20.68 50.72 49.7 0 29.15-19.57 49.7-50.72 49.7h-30.6V2.6zm31.13 84.34c21.69 0 35.13-12.04 35.13-34.64 0-22.47-13.44-34.64-35.13-34.64h-16.07v69.28h16.07z"/>
        <path d="M102.425 47.79h-47.67v14.76h33.61c-1.11 7.53-3.72 13.4-7.63 17.32-4.98 4.98-12.76 10.46-26.41 10.46-21.05 0-37.51-16.97-37.51-38.02s16.46-38.02 37.51-38.02a36.445 36.445 0 0 1 25.77 10.21l10.08-10.08A49.825 49.825 0 0 0 54.325 0c-28.83 0-53.07 23.47-53.07 52.31 0 28.83 24.24 52.31 53.07 52.31 15.56 0 27.3-5.1 36.49-14.67 9.44-9.44 12.38-22.71 12.38-33.43a44.41 44.41 0 0 0-.77-8.73zM307.245 47.79h-47.67v14.76h33.61c-1.11 7.53-3.72 13.4-7.63 17.32-4.98 4.98-12.76 10.46-26.41 10.46-21.05 0-37.51-16.97-37.51-38.02s16.46-38.02 37.51-38.02a36.445 36.445 0 0 1 25.77 10.21l10.08-10.08A49.825 49.825 0 0 0 259.145 0c-28.83 0-53.07 23.47-53.07 52.31 0 28.83 24.24 52.31 53.07 52.31 15.56 0 27.3-5.1 36.49-14.67 9.44-9.44 12.38-22.71 12.38-33.43a44.424 44.424 0 0 0-.77-8.73z"/>
    </g>
</svg>
