<svg id="Layer_1" data-name="Layer 1" xmlns="http://www.w3.org/2000/svg" viewBox="0 0 816.67 504.17"><title>gdg</title><path d="M235.7,256.63,337.26,198a50,50,0,0,0-50-86.55L111.79,212.76Z" fill="#ea4335"/><path d="M312.23,407.34a50,50,0,0,0,25-93.26L161.76,212.76a50,50,0,0,0-50,86.55l175.5,101.33A49.77,49.77,0,0,0,312.23,407.34Z" fill="#4285f4"/><path d="M486.8,407.34a49.77,49.77,0,0,0,24.94-6.7L687.23,299.31,564.9,254.54,461.77,314.08a50,50,0,0,0,25,93.26Z" fill="#fbbc04"/><path d="M662.2,306a50,50,0,0,0,25-93.26L511.74,111.44a50,50,0,1,0-50,86.55L637.26,299.31A49.68,49.68,0,0,0,662.2,306Z" fill="#0f9d58"/></svg>